<svg width="21" height="26" fill="none" xmlns="http://www.w3.org/2000/svg"><path d="m8.223 18.539.494.192.417-1.074c1.115.356 2.183-.086 2.558-1.05.424-1.09-.058-1.735-1.204-2.433l.822-2.114c.586.326.798.797.67 1.497l.654.254c.272-1.023-.132-1.842-1.101-2.326l.299-.769-.494-.192-.296.76c-1.073-.338-2.06.066-2.401.946-.395 1.014.113 1.669 1.136 2.31l-.914 2.35c-.985-.49-.96-1.152-.787-1.844l-.703-.273c-.278 1.011-.126 2.034 1.267 2.692l-.417 1.074Zm2.754-2.15c-.243.625-.923.886-1.62.693l.881-2.266c.838.55.982.946.739 1.572Zm-1.648-3.97c.203-.524.763-.774 1.49-.56l-.792 2.038c-.854-.556-.905-.945-.698-1.478Z" fill="#fff"/><path fill-rule="evenodd" clip-rule="evenodd" d="m13.236 23.423 4.947-12.726a1.563 1.563 0 0 0-.145-1.416l-3.145-4.857a1.563 1.563 0 0 0-1.706-.663L7.588 5.219a1.563 1.563 0 0 0-1.063.947L1.578 18.892c-.312.805.086 1.71.891 2.023l8.744 3.399a1.563 1.563 0 0 0 2.023-.891ZM7.391 4.463a2.345 2.345 0 0 0-1.595 1.42L.85 18.607a2.345 2.345 0 0 0 1.336 3.036l8.744 3.398a2.345 2.345 0 0 0 3.035-1.336L18.91 10.98a2.345 2.345 0 0 0-.217-2.124L15.55 3.999a2.345 2.345 0 0 0-2.56-.995L7.391 4.462Z" fill="#fff"/><path fill-rule="evenodd" clip-rule="evenodd" d="M12.93 6.948a.782.782 0 1 0 .566-1.457.782.782 0 0 0-.566 1.457Z" fill="#fff"/></svg>